<svg xmlns="http://www.w3.org/2000/svg" viewBox="0 0 53.27 92.21"><defs><style>.a{fill:#0c7dbd;}.a,.b{fill-rule:evenodd;}.b{fill:#009340;}</style></defs><title>Ресурс 2</title><path class="a" d="M14,41.87a5,5,0,1,1-5.42,4.59A5,5,0,0,1,14,41.87Z"/><path class="a" d="M15.91,29.13a4.44,4.44,0,1,1-4.79,4.06,4.44,4.44,0,0,1,4.79-4.06Z"/><path class="a" d="M22,19.4A4,4,0,1,1,17.68,23,4,4,0,0,1,22,19.4Z"/><path class="a" d="M37.13,8.49a3.62,3.62,0,1,1-3.91,3.31,3.62,3.62,0,0,1,3.91-3.31Z"/><path class="a" d="M45.55,4.28A2.92,2.92,0,1,1,42.4,7a2.92,2.92,0,0,1,3.15-2.67Z"/><path class="a" d="M51.95.93a2,2,0,1,0,.76,2.69A2,2,0,0,0,51.95.93Z"/><path class="b" d="M31.47,92.18c.07-6.3-.53-12.42-3.69-17.5-1.92-3.09-6.26-6.67-12-11h0C8,57.94.44,51.48.44,44L0,44c-.07,6.3.53,12.42,3.69,17.5,1.92,3.09,6.26,6.67,12,11h0C23.5,78.26,31,84.72,31,92.21l.44,0Z"/><path class="b" d="M29.34,75.78c-.05-4.79.4-9.44,2.81-13.31,1.46-2.35,4.76-5.07,9.15-8.37h0c5.91-4.35,11.63-9.26,11.63-15l.33,0c.05,4.79-.41,9.44-2.81,13.31-1.46,2.35-4.76,5.07-9.15,8.38h0c-5.91,4.35-11.63,9.26-11.63,15l-.33,0Z"/><path class="b" d="M31.8,46A5.61,5.61,0,1,1,26,51.48,5.61,5.61,0,0,1,31.8,46Z"/><path class="b" d="M39.16,34.78a4.72,4.72,0,1,0,1.64,6.47,4.72,4.72,0,0,0-1.64-6.47Z"/><path class="b" d="M36.38,22.91a4.3,4.3,0,1,0,1.5,5.9,4.3,4.3,0,0,0-1.5-5.9Z"/><path class="b" d="M30.74,14.2A3.19,3.19,0,1,0,32,18.54a3.19,3.19,0,0,0-1.23-4.33Z"/><path class="b" d="M30.62,5.8a2.64,2.64,0,1,0,1,3.59,2.64,2.64,0,0,0-1-3.59Z"/><path class="b" d="M33.34.23A1.79,1.79,0,1,0,34,2.66,1.79,1.79,0,0,0,33.34.23Z"/><path class="b" d="M29.17,35.47a2.05,2.05,0,1,0,.8,2.79,2.05,2.05,0,0,0-.8-2.79Z"/><path class="b" d="M23.74,34.87a1.38,1.38,0,1,0,.54,1.88,1.38,1.38,0,0,0-.54-1.88Z"/><path class="b" d="M38,1.85a1.38,1.38,0,1,0,.54,1.88A1.38,1.38,0,0,0,38,1.85Z"/></svg>